<svg xmlns="http://www.w3.org/2000/svg" viewBox="0 0 1000 1240" width="1000" height="1240" preserveAspectRatio="xMidYMid meet" role="img" aria-labelledby="pin-title">
  <title id="pin-title">MQ_Quad 40-pin header — GPIO / wPi mapping</title>
  <defs>
    <linearGradient id="bg" x1="0" y1="0" x2="0" y2="1">
      <stop offset="0" stop-color="#1a1423"/>
      <stop offset="1" stop-color="#0d0a13"/>
    </linearGradient>
    <pattern id="grid" width="40" height="40" patternUnits="userSpaceOnUse">
      <path d="M 40 0 L 0 0 0 40" fill="none" stroke="#c084fc" stroke-width="0.5" opacity="0.06"/>
    </pattern>
    <style>
      .mono { font-family: ui-monospace, "SF Mono", Menlo, Consolas, monospace; }
      .sans { font-family: -apple-system, "Segoe UI", Roboto, sans-serif; }
      .fg   { fill: #e9e4f1; }
      .mut  { fill: #7c7690; }
      .row  { fill: #221a30; opacity: 0.4; }
      .row:hover { opacity: 0.7; }
      .pinlabel { font-weight: 700; }
    </style>
  </defs>

  <rect width="1000" height="1240" fill="url(#bg)"/>
  <rect width="1000" height="1240" fill="url(#grid)"/>

  <!-- header -->
  <g transform="translate(60, 60)">
    <text class="mono" x="0" y="0" font-size="14" fill="#c084fc" letter-spacing="6" opacity="0.75">/// MQ_QUAD  ·  40-PIN HEADER</text>
    <text class="sans" x="0" y="40" font-size="34" font-weight="800" fill="#f5f3ff" letter-spacing="-0.5">Pinout · gpio readall</text>
    <text class="mono" x="0" y="70" font-size="13" fill="#9089a3">Raw output rendered as a schematic — left column = odd pins, right column = even pins.</text>
  </g>

  <!-- legend -->
  <g transform="translate(60, 160)" class="mono" font-size="11">
    <g><rect x="0"   y="0" width="14" height="14" rx="2" fill="#ef4444"/><text x="22" y="11" class="fg">3.3V</text></g>
    <g><rect x="80"  y="0" width="14" height="14" rx="2" fill="#b91c1c"/><text x="102" y="11" class="fg">5V</text></g>
    <g><rect x="150" y="0" width="14" height="14" rx="2" fill="#4b5563"/><text x="172" y="11" class="fg">GND</text></g>
    <g><rect x="230" y="0" width="14" height="14" rx="2" fill="#22d3ee"/><text x="252" y="11" class="fg">I²C (SDA/SCL)</text></g>
    <g><rect x="380" y="0" width="14" height="14" rx="2" fill="#eab308"/><text x="402" y="11" class="fg">UART.0</text></g>
    <g><rect x="490" y="0" width="14" height="14" rx="2" fill="#a3a325"/><text x="512" y="11" class="fg">UART.5</text></g>
    <g><rect x="600" y="0" width="14" height="14" rx="2" fill="#14b8a6"/><text x="622" y="11" class="fg">SPI.1</text></g>
    <g><rect x="700" y="0" width="14" height="14" rx="2" fill="#22c55e"/><text x="722" y="11" class="fg">GPIO / ALT</text></g>
  </g>

  <!-- column headers -->
  <g transform="translate(60, 210)" class="mono" font-size="10" fill="#7c7690" letter-spacing="1">
    <text x="0"   y="10">GPIO</text>
    <text x="55"  y="10">wPi</text>
    <text x="95"  y="10">MODE</text>
    <text x="230" y="10" text-anchor="end">NAME</text>
    <text x="290" y="10" text-anchor="middle">PIN</text>
    <text x="360" y="10" text-anchor="middle">PIN</text>
    <text x="410" y="10">NAME</text>
    <text x="620" y="10">MODE</text>
    <text x="740" y="10">wPi</text>
    <text x="815" y="10">GPIO</text>
  </g>
  <line x1="60" y1="220" x2="940" y2="220" stroke="#c084fc" stroke-width="0.5" opacity="0.3"/>

  <!-- ROWS - each row 44px tall, starts at y=230 -->
  <!-- helpers: dot cx = 260 (left), 390 (right). pin# cx = 290 (odd), 360 (even) -->

  <!-- Row 1-2: 3.3V | 5V -->
  <g transform="translate(60, 235)">
    <rect class="row" x="-10" y="-4" width="900" height="36" rx="4"/>
    <text class="mono fg" x="230" y="16" text-anchor="end" font-size="14">3.3V</text>
    <circle cx="260" cy="12" r="7" fill="#ef4444"/>
    <text class="mono pinlabel fg" x="290" y="17" text-anchor="middle" font-size="14">1</text>
    <line x1="305" y1="12" x2="345" y2="12" stroke="#3d3550" stroke-dasharray="2 3"/>
    <text class="mono pinlabel fg" x="360" y="17" text-anchor="middle" font-size="14">2</text>
    <circle cx="390" cy="12" r="7" fill="#b91c1c"/>
    <text class="mono fg" x="410" y="16" font-size="14">5V</text>
  </g>

  <!-- Row 3-4: PI8/SDA (OUT) | 5V -->
  <g transform="translate(60, 279)">
    <rect class="row" x="-10" y="-4" width="900" height="36" rx="4"/>
    <text class="mono mut" x="0" y="16" font-size="12">264</text>
    <text class="mono fg"  x="55" y="16" font-size="12" font-weight="700">0</text>
    <text class="mono mut" x="95" y="16" font-size="11">OUT</text>
    <text class="mono fg"  x="230" y="16" text-anchor="end" font-size="14">PI8 / SDA</text>
    <circle cx="260" cy="12" r="7" fill="#22d3ee"/>
    <text class="mono pinlabel fg" x="290" y="17" text-anchor="middle" font-size="14">3</text>
    <line x1="305" y1="12" x2="345" y2="12" stroke="#3d3550" stroke-dasharray="2 3"/>
    <text class="mono pinlabel fg" x="360" y="17" text-anchor="middle" font-size="14">4</text>
    <circle cx="390" cy="12" r="7" fill="#b91c1c"/>
    <text class="mono fg" x="410" y="16" font-size="14">5V</text>
  </g>

  <!-- Row 5-6: PI7/SCL (OUT) | GND -->
  <g transform="translate(60, 323)">
    <rect class="row" x="-10" y="-4" width="900" height="36" rx="4"/>
    <text class="mono mut" x="0" y="16" font-size="12">263</text>
    <text class="mono fg"  x="55" y="16" font-size="12" font-weight="700">1</text>
    <text class="mono mut" x="95" y="16" font-size="11">OUT</text>
    <text class="mono fg"  x="230" y="16" text-anchor="end" font-size="14">PI7 / SCL</text>
    <circle cx="260" cy="12" r="7" fill="#22d3ee"/>
    <text class="mono pinlabel fg" x="290" y="17" text-anchor="middle" font-size="14">5</text>
    <line x1="305" y1="12" x2="345" y2="12" stroke="#3d3550" stroke-dasharray="2 3"/>
    <text class="mono pinlabel fg" x="360" y="17" text-anchor="middle" font-size="14">6</text>
    <circle cx="390" cy="12" r="7" fill="#4b5563"/>
    <text class="mono fg" x="410" y="16" font-size="14">GND</text>
  </g>

  <!-- Row 7-8: PI0 (OUT) | TXD.0 (OUT) -->
  <g transform="translate(60, 367)">
    <rect class="row" x="-10" y="-4" width="900" height="36" rx="4"/>
    <text class="mono mut" x="0" y="16" font-size="12">256</text>
    <text class="mono fg"  x="55" y="16" font-size="12" font-weight="700">2</text>
    <text class="mono mut" x="95" y="16" font-size="11">OUT</text>
    <text class="mono fg"  x="230" y="16" text-anchor="end" font-size="14">PI0</text>
    <circle cx="260" cy="12" r="7" fill="#22c55e"/>
    <text class="mono pinlabel fg" x="290" y="17" text-anchor="middle" font-size="14">7</text>
    <line x1="305" y1="12" x2="345" y2="12" stroke="#3d3550" stroke-dasharray="2 3"/>
    <text class="mono pinlabel fg" x="360" y="17" text-anchor="middle" font-size="14">8</text>
    <circle cx="390" cy="12" r="7" fill="#eab308"/>
    <text class="mono fg" x="410" y="16" font-size="14">TXD.0</text>
    <text class="mono mut" x="620" y="16" font-size="11">OUT</text>
    <text class="mono fg"  x="740" y="16" font-size="12" font-weight="700">3</text>
    <text class="mono mut" x="815" y="16" font-size="12">224</text>
  </g>

  <!-- Row 9-10: GND | RXD.0 (OUT) -->
  <g transform="translate(60, 411)">
    <rect class="row" x="-10" y="-4" width="900" height="36" rx="4"/>
    <text class="mono fg"  x="230" y="16" text-anchor="end" font-size="14">GND</text>
    <circle cx="260" cy="12" r="7" fill="#4b5563"/>
    <text class="mono pinlabel fg" x="290" y="17" text-anchor="middle" font-size="14">9</text>
    <line x1="305" y1="12" x2="345" y2="12" stroke="#3d3550" stroke-dasharray="2 3"/>
    <text class="mono pinlabel fg" x="360" y="17" text-anchor="middle" font-size="14">10</text>
    <circle cx="390" cy="12" r="7" fill="#eab308"/>
    <text class="mono fg" x="410" y="16" font-size="14">RXD.0</text>
    <text class="mono mut" x="620" y="16" font-size="11">OUT</text>
    <text class="mono fg"  x="740" y="16" font-size="12" font-weight="700">4</text>
    <text class="mono mut" x="815" y="16" font-size="12">225</text>
  </g>

  <!-- Row 11-12: TX.5 (OUT) | PI1 (OUT) -->
  <g transform="translate(60, 455)">
    <rect class="row" x="-10" y="-4" width="900" height="36" rx="4"/>
    <text class="mono mut" x="0" y="16" font-size="12">226</text>
    <text class="mono fg"  x="55" y="16" font-size="12" font-weight="700">5</text>
    <text class="mono mut" x="95" y="16" font-size="11">OUT</text>
    <text class="mono fg"  x="230" y="16" text-anchor="end" font-size="14">TX.5</text>
    <circle cx="260" cy="12" r="7" fill="#a3a325"/>
    <text class="mono pinlabel fg" x="290" y="17" text-anchor="middle" font-size="14">11</text>
    <line x1="305" y1="12" x2="345" y2="12" stroke="#3d3550" stroke-dasharray="2 3"/>
    <text class="mono pinlabel fg" x="360" y="17" text-anchor="middle" font-size="14">12</text>
    <circle cx="390" cy="12" r="7" fill="#22c55e"/>
    <text class="mono fg" x="410" y="16" font-size="14">PI1</text>
    <text class="mono mut" x="620" y="16" font-size="11">OUT</text>
    <text class="mono fg"  x="740" y="16" font-size="12" font-weight="700">6</text>
    <text class="mono mut" x="815" y="16" font-size="12">257</text>
  </g>

  <!-- Row 13-14: RX.5 (OUT) | GND -->
  <g transform="translate(60, 499)">
    <rect class="row" x="-10" y="-4" width="900" height="36" rx="4"/>
    <text class="mono mut" x="0" y="16" font-size="12">227</text>
    <text class="mono fg"  x="55" y="16" font-size="12" font-weight="700">7</text>
    <text class="mono mut" x="95" y="16" font-size="11">OUT</text>
    <text class="mono fg"  x="230" y="16" text-anchor="end" font-size="14">RX.5</text>
    <circle cx="260" cy="12" r="7" fill="#a3a325"/>
    <text class="mono pinlabel fg" x="290" y="17" text-anchor="middle" font-size="14">13</text>
    <line x1="305" y1="12" x2="345" y2="12" stroke="#3d3550" stroke-dasharray="2 3"/>
    <text class="mono pinlabel fg" x="360" y="17" text-anchor="middle" font-size="14">14</text>
    <circle cx="390" cy="12" r="7" fill="#4b5563"/>
    <text class="mono fg" x="410" y="16" font-size="14">GND</text>
  </g>

  <!-- Row 15-16: PI13 (ALT2) | PI14 (ALT2) -->
  <g transform="translate(60, 543)">
    <rect class="row" x="-10" y="-4" width="900" height="36" rx="4"/>
    <text class="mono mut" x="0" y="16" font-size="12">269</text>
    <text class="mono fg"  x="55" y="16" font-size="12" font-weight="700">8</text>
    <text class="mono mut" x="95" y="16" font-size="11">ALT2</text>
    <text class="mono fg"  x="230" y="16" text-anchor="end" font-size="14">PI13</text>
    <circle cx="260" cy="12" r="7" fill="#22c55e"/>
    <text class="mono pinlabel fg" x="290" y="17" text-anchor="middle" font-size="14">15</text>
    <line x1="305" y1="12" x2="345" y2="12" stroke="#3d3550" stroke-dasharray="2 3"/>
    <text class="mono pinlabel fg" x="360" y="17" text-anchor="middle" font-size="14">16</text>
    <circle cx="390" cy="12" r="7" fill="#22c55e"/>
    <text class="mono fg" x="410" y="16" font-size="14">PI14</text>
    <text class="mono mut" x="620" y="16" font-size="11">ALT2</text>
    <text class="mono fg"  x="740" y="16" font-size="12" font-weight="700">9</text>
    <text class="mono mut" x="815" y="16" font-size="12">270</text>
  </g>

  <!-- Row 17-18: 3.3V | PH4 (OFF) -->
  <g transform="translate(60, 587)">
    <rect class="row" x="-10" y="-4" width="900" height="36" rx="4"/>
    <text class="mono fg"  x="230" y="16" text-anchor="end" font-size="14">3.3V</text>
    <circle cx="260" cy="12" r="7" fill="#ef4444"/>
    <text class="mono pinlabel fg" x="290" y="17" text-anchor="middle" font-size="14">17</text>
    <line x1="305" y1="12" x2="345" y2="12" stroke="#3d3550" stroke-dasharray="2 3"/>
    <text class="mono pinlabel fg" x="360" y="17" text-anchor="middle" font-size="14">18</text>
    <circle cx="390" cy="12" r="7" fill="#22c55e"/>
    <text class="mono fg" x="410" y="16" font-size="14">PH4</text>
    <text class="mono mut" x="620" y="16" font-size="11">OFF</text>
    <text class="mono fg"  x="740" y="16" font-size="12" font-weight="700">10</text>
    <text class="mono mut" x="815" y="16" font-size="12">228</text>
  </g>

  <!-- Row 19-20: MOSI.1 (OFF) | GND -->
  <g transform="translate(60, 631)">
    <rect class="row" x="-10" y="-4" width="900" height="36" rx="4"/>
    <text class="mono mut" x="0" y="16" font-size="12">231</text>
    <text class="mono fg"  x="55" y="16" font-size="12" font-weight="700">11</text>
    <text class="mono mut" x="95" y="16" font-size="11">OFF</text>
    <text class="mono fg"  x="230" y="16" text-anchor="end" font-size="14">MOSI.1</text>
    <circle cx="260" cy="12" r="7" fill="#14b8a6"/>
    <text class="mono pinlabel fg" x="290" y="17" text-anchor="middle" font-size="14">19</text>
    <line x1="305" y1="12" x2="345" y2="12" stroke="#3d3550" stroke-dasharray="2 3"/>
    <text class="mono pinlabel fg" x="360" y="17" text-anchor="middle" font-size="14">20</text>
    <circle cx="390" cy="12" r="7" fill="#4b5563"/>
    <text class="mono fg" x="410" y="16" font-size="14">GND</text>
  </g>

  <!-- Row 21-22: MISO.1 (OFF) | PI6 (OFF) -->
  <g transform="translate(60, 675)">
    <rect class="row" x="-10" y="-4" width="900" height="36" rx="4"/>
    <text class="mono mut" x="0" y="16" font-size="12">232</text>
    <text class="mono fg"  x="55" y="16" font-size="12" font-weight="700">12</text>
    <text class="mono mut" x="95" y="16" font-size="11">OFF</text>
    <text class="mono fg"  x="230" y="16" text-anchor="end" font-size="14">MISO.1</text>
    <circle cx="260" cy="12" r="7" fill="#14b8a6"/>
    <text class="mono pinlabel fg" x="290" y="17" text-anchor="middle" font-size="14">21</text>
    <line x1="305" y1="12" x2="345" y2="12" stroke="#3d3550" stroke-dasharray="2 3"/>
    <text class="mono pinlabel fg" x="360" y="17" text-anchor="middle" font-size="14">22</text>
    <circle cx="390" cy="12" r="7" fill="#22c55e"/>
    <text class="mono fg" x="410" y="16" font-size="14">PI6</text>
    <text class="mono mut" x="620" y="16" font-size="11">OFF</text>
    <text class="mono fg"  x="740" y="16" font-size="12" font-weight="700">13</text>
    <text class="mono mut" x="815" y="16" font-size="12">262</text>
  </g>

  <!-- Row 23-24: SCLK.1 (OFF) | CS.0 ((null)) -->
  <g transform="translate(60, 719)">
    <rect class="row" x="-10" y="-4" width="900" height="36" rx="4"/>
    <text class="mono mut" x="0" y="16" font-size="12">230</text>
    <text class="mono fg"  x="55" y="16" font-size="12" font-weight="700">14</text>
    <text class="mono mut" x="95" y="16" font-size="11">OFF</text>
    <text class="mono fg"  x="230" y="16" text-anchor="end" font-size="14">SCLK.1</text>
    <circle cx="260" cy="12" r="7" fill="#14b8a6"/>
    <text class="mono pinlabel fg" x="290" y="17" text-anchor="middle" font-size="14">23</text>
    <line x1="305" y1="12" x2="345" y2="12" stroke="#3d3550" stroke-dasharray="2 3"/>
    <text class="mono pinlabel fg" x="360" y="17" text-anchor="middle" font-size="14">24</text>
    <circle cx="390" cy="12" r="7" fill="#14b8a6"/>
    <text class="mono fg" x="410" y="16" font-size="14">CS.0</text>
    <text class="mono mut" x="620" y="16" font-size="11">(null)</text>
    <text class="mono fg"  x="740" y="16" font-size="12" font-weight="700">15</text>
    <text class="mono mut" x="815" y="16" font-size="12">229</text>
  </g>

  <!-- Row 25-26: GND | CS.1 ((null)) -->
  <g transform="translate(60, 763)">
    <rect class="row" x="-10" y="-4" width="900" height="36" rx="4"/>
    <text class="mono fg"  x="230" y="16" text-anchor="end" font-size="14">GND</text>
    <circle cx="260" cy="12" r="7" fill="#4b5563"/>
    <text class="mono pinlabel fg" x="290" y="17" text-anchor="middle" font-size="14">25</text>
    <line x1="305" y1="12" x2="345" y2="12" stroke="#3d3550" stroke-dasharray="2 3"/>
    <text class="mono pinlabel fg" x="360" y="17" text-anchor="middle" font-size="14">26</text>
    <circle cx="390" cy="12" r="7" fill="#14b8a6"/>
    <text class="mono fg" x="410" y="16" font-size="14">CS.1</text>
    <text class="mono mut" x="620" y="16" font-size="11">(null)</text>
    <text class="mono fg"  x="740" y="16" font-size="12" font-weight="700">16</text>
    <text class="mono mut" x="815" y="16" font-size="12">233</text>
  </g>

  <!-- Row 27-28: PI10 (ALT2) | PI9 (ALT2) -->
  <g transform="translate(60, 807)">
    <rect class="row" x="-10" y="-4" width="900" height="36" rx="4"/>
    <text class="mono mut" x="0" y="16" font-size="12">266</text>
    <text class="mono fg"  x="55" y="16" font-size="12" font-weight="700">17</text>
    <text class="mono mut" x="95" y="16" font-size="11">ALT2</text>
    <text class="mono fg"  x="230" y="16" text-anchor="end" font-size="14">PI10</text>
    <circle cx="260" cy="12" r="7" fill="#22c55e"/>
    <text class="mono pinlabel fg" x="290" y="17" text-anchor="middle" font-size="14">27</text>
    <line x1="305" y1="12" x2="345" y2="12" stroke="#3d3550" stroke-dasharray="2 3"/>
    <text class="mono pinlabel fg" x="360" y="17" text-anchor="middle" font-size="14">28</text>
    <circle cx="390" cy="12" r="7" fill="#22c55e"/>
    <text class="mono fg" x="410" y="16" font-size="14">PI9</text>
    <text class="mono mut" x="620" y="16" font-size="11">ALT2</text>
    <text class="mono fg"  x="740" y="16" font-size="12" font-weight="700">18</text>
    <text class="mono mut" x="815" y="16" font-size="12">265</text>
  </g>

  <!-- Row 29-30: PI11 (ALT2) | GND -->
  <g transform="translate(60, 851)">
    <rect class="row" x="-10" y="-4" width="900" height="36" rx="4"/>
    <text class="mono mut" x="0" y="16" font-size="12">267</text>
    <text class="mono fg"  x="55" y="16" font-size="12" font-weight="700">19</text>
    <text class="mono mut" x="95" y="16" font-size="11">ALT2</text>
    <text class="mono fg"  x="230" y="16" text-anchor="end" font-size="14">PI11</text>
    <circle cx="260" cy="12" r="7" fill="#22c55e"/>
    <text class="mono pinlabel fg" x="290" y="17" text-anchor="middle" font-size="14">29</text>
    <line x1="305" y1="12" x2="345" y2="12" stroke="#3d3550" stroke-dasharray="2 3"/>
    <text class="mono pinlabel fg" x="360" y="17" text-anchor="middle" font-size="14">30</text>
    <circle cx="390" cy="12" r="7" fill="#4b5563"/>
    <text class="mono fg" x="410" y="16" font-size="14">GND</text>
  </g>

  <!-- Row 31-32: PI12 (ALT2) | PI5 (ALT2) -->
  <g transform="translate(60, 895)">
    <rect class="row" x="-10" y="-4" width="900" height="36" rx="4"/>
    <text class="mono mut" x="0" y="16" font-size="12">268</text>
    <text class="mono fg"  x="55" y="16" font-size="12" font-weight="700">20</text>
    <text class="mono mut" x="95" y="16" font-size="11">ALT2</text>
    <text class="mono fg"  x="230" y="16" text-anchor="end" font-size="14">PI12</text>
    <circle cx="260" cy="12" r="7" fill="#22c55e"/>
    <text class="mono pinlabel fg" x="290" y="17" text-anchor="middle" font-size="14">31</text>
    <line x1="305" y1="12" x2="345" y2="12" stroke="#3d3550" stroke-dasharray="2 3"/>
    <text class="mono pinlabel fg" x="360" y="17" text-anchor="middle" font-size="14">32</text>
    <circle cx="390" cy="12" r="7" fill="#22c55e"/>
    <text class="mono fg" x="410" y="16" font-size="14">PI5</text>
    <text class="mono mut" x="620" y="16" font-size="11">ALT2</text>
    <text class="mono fg"  x="740" y="16" font-size="12" font-weight="700">21</text>
    <text class="mono mut" x="815" y="16" font-size="12">261</text>
  </g>

  <!-- Row 33-34: PI15 (ALT2) | GND -->
  <g transform="translate(60, 939)">
    <rect class="row" x="-10" y="-4" width="900" height="36" rx="4"/>
    <text class="mono mut" x="0" y="16" font-size="12">271</text>
    <text class="mono fg"  x="55" y="16" font-size="12" font-weight="700">22</text>
    <text class="mono mut" x="95" y="16" font-size="11">ALT2</text>
    <text class="mono fg"  x="230" y="16" text-anchor="end" font-size="14">PI15</text>
    <circle cx="260" cy="12" r="7" fill="#22c55e"/>
    <text class="mono pinlabel fg" x="290" y="17" text-anchor="middle" font-size="14">33</text>
    <line x1="305" y1="12" x2="345" y2="12" stroke="#3d3550" stroke-dasharray="2 3"/>
    <text class="mono pinlabel fg" x="360" y="17" text-anchor="middle" font-size="14">34</text>
    <circle cx="390" cy="12" r="7" fill="#4b5563"/>
    <text class="mono fg" x="410" y="16" font-size="14">GND</text>
  </g>

  <!-- Row 35-36: PI2 (ALT2) | PH10 (ALT3) -->
  <g transform="translate(60, 983)">
    <rect class="row" x="-10" y="-4" width="900" height="36" rx="4"/>
    <text class="mono mut" x="0" y="16" font-size="12">258</text>
    <text class="mono fg"  x="55" y="16" font-size="12" font-weight="700">23</text>
    <text class="mono mut" x="95" y="16" font-size="11">ALT2</text>
    <text class="mono fg"  x="230" y="16" text-anchor="end" font-size="14">PI2</text>
    <circle cx="260" cy="12" r="7" fill="#22c55e"/>
    <text class="mono pinlabel fg" x="290" y="17" text-anchor="middle" font-size="14">35</text>
    <line x1="305" y1="12" x2="345" y2="12" stroke="#3d3550" stroke-dasharray="2 3"/>
    <text class="mono pinlabel fg" x="360" y="17" text-anchor="middle" font-size="14">36</text>
    <circle cx="390" cy="12" r="7" fill="#22c55e"/>
    <text class="mono fg" x="410" y="16" font-size="14">PH10</text>
    <text class="mono mut" x="620" y="16" font-size="11">ALT3</text>
    <text class="mono fg"  x="740" y="16" font-size="12" font-weight="700">24</text>
    <text class="mono mut" x="815" y="16" font-size="12">234</text>
  </g>

  <!-- Row 37-38: PI16 ((null)) | PI4 (ALT2) -->
  <g transform="translate(60, 1027)">
    <rect class="row" x="-10" y="-4" width="900" height="36" rx="4"/>
    <text class="mono mut" x="0" y="16" font-size="12">272</text>
    <text class="mono fg"  x="55" y="16" font-size="12" font-weight="700">25</text>
    <text class="mono mut" x="95" y="16" font-size="11">(null)</text>
    <text class="mono fg"  x="230" y="16" text-anchor="end" font-size="14">PI16</text>
    <circle cx="260" cy="12" r="7" fill="#22c55e"/>
    <text class="mono pinlabel fg" x="290" y="17" text-anchor="middle" font-size="14">37</text>
    <line x1="305" y1="12" x2="345" y2="12" stroke="#3d3550" stroke-dasharray="2 3"/>
    <text class="mono pinlabel fg" x="360" y="17" text-anchor="middle" font-size="14">38</text>
    <circle cx="390" cy="12" r="7" fill="#22c55e"/>
    <text class="mono fg" x="410" y="16" font-size="14">PI4</text>
    <text class="mono mut" x="620" y="16" font-size="11">ALT2</text>
    <text class="mono fg"  x="740" y="16" font-size="12" font-weight="700">26</text>
    <text class="mono mut" x="815" y="16" font-size="12">260</text>
  </g>

  <!-- Row 39-40: GND | PI3 (ALT2) -->
  <g transform="translate(60, 1071)">
    <rect class="row" x="-10" y="-4" width="900" height="36" rx="4"/>
    <text class="mono fg"  x="230" y="16" text-anchor="end" font-size="14">GND</text>
    <circle cx="260" cy="12" r="7" fill="#4b5563"/>
    <text class="mono pinlabel fg" x="290" y="17" text-anchor="middle" font-size="14">39</text>
    <line x1="305" y1="12" x2="345" y2="12" stroke="#3d3550" stroke-dasharray="2 3"/>
    <text class="mono pinlabel fg" x="360" y="17" text-anchor="middle" font-size="14">40</text>
    <circle cx="390" cy="12" r="7" fill="#22c55e"/>
    <text class="mono fg" x="410" y="16" font-size="14">PI3</text>
    <text class="mono mut" x="620" y="16" font-size="11">ALT2</text>
    <text class="mono fg"  x="740" y="16" font-size="12" font-weight="700">27</text>
    <text class="mono mut" x="815" y="16" font-size="12">259</text>
  </g>

  <!-- footer note -->
  <text class="mono" x="60" y="1170" font-size="11" fill="#7c7690">GPIO = Linux gpiochip number  ·  wPi = WiringPi number (pinMode arg)  ·  MODE = pin state at gpio readall time</text>
  <text class="mono" x="60" y="1190" font-size="11" fill="#7c7690">V column and repeated header rows omitted from this diagram — full raw output is under &lt;details&gt; in the README.</text>
</svg>
